<svg width="271" height="271" viewBox="0 0 271 271" fill="none" xmlns="http://www.w3.org/2000/svg">
<g clip-path="url(#clip0_4619_3704)">
<rect x="57.199" width="221" height="221" rx="16" transform="rotate(15 57.199 0)" fill="#A58AFF"/>
<path d="M47.1754 197.511L78.5203 27.1626L238.622 70.0619L180.594 233.26L108.522 235.398L47.1754 197.511Z" fill="#1172B8"/>
<path d="M221.705 79.8288L154.996 61.9541L111.203 225.392L169.039 223.014L221.705 79.8288Z" fill="#33AADD"/>
<path d="M156.001 151.597L89.2922 133.722L92.2129 109.48L150.049 107.103L96.6816 92.8029L98.7085 71.8963L202.108 99.6021L192.516 122.057L144.687 127.115L184.712 137.84L161.06 199.427L117.46 202.044L81.0091 177.977L86.611 143.729L106.624 149.091L105.491 166.662L123.716 178.695L145.516 177.387L156.001 151.597Z" fill="white"/>
</g>
<defs>
<clipPath id="clip0_4619_3704">
<rect x="57.199" width="221" height="221" rx="16" transform="rotate(15 57.199 0)" fill="white"/>
</clipPath>
</defs>
</svg>
