<svg width="350" height="350" viewBox="0 0 350 350" fill="none" xmlns="http://www.w3.org/2000/svg">
<g clip-path="url(#clip0_4619_3699)">
<rect y="73.784" width="285.08" height="285.08" rx="16" transform="rotate(-15 0 73.784)" fill="#A58AFF"/>
<path d="M116.192 300.894L41.3381 90.3765L247.862 35.0385L288.296 254.779L209.161 303.652L116.192 300.894Z" fill="#E44D26"/>
<path d="M235.263 56.8604L149.211 79.9179L205.702 290.745L268.779 250.786L235.263 56.8604Z" fill="#F16529"/>
<path d="M122.1 202.47L91.5901 123.027L224.97 87.2874L227.585 114.256L124.323 141.925L136.696 170.89L231.353 145.527L244.652 229.582L197.632 260.627L141.39 257.251L125.559 215.378L151.374 208.46L161.441 228.821L189.562 230.508L213.072 214.986L208.152 179.412L122.1 202.47Z" fill="white"/>
</g>
<defs>
<clipPath id="clip0_4619_3699">
<rect y="73.784" width="285.08" height="285.08" rx="16" transform="rotate(-15 0 73.784)" fill="white"/>
</clipPath>
</defs>
</svg>
