<svg width="20" height="20" viewBox="0 0 20 20" fill="none" xmlns="http://www.w3.org/2000/svg">
<path d="M15.8333 3.33334H4.16663C3.50358 3.33334 2.8677 3.59674 2.39886 4.06558C1.93002 4.53442 1.66663 5.1703 1.66663 5.83334V14.1667C1.66663 14.8297 1.93002 15.4656 2.39886 15.9344C2.8677 16.4033 3.50358 16.6667 4.16663 16.6667H15.8333C16.4963 16.6667 17.1322 16.4033 17.6011 15.9344C18.0699 15.4656 18.3333 14.8297 18.3333 14.1667V5.83334C18.3333 5.1703 18.0699 4.53442 17.6011 4.06558C17.1322 3.59674 16.4963 3.33334 15.8333 3.33334V3.33334ZM15.4916 5.00001L10.5916 9.90001C10.5142 9.97812 10.422 10.0401 10.3204 10.0824C10.2189 10.1247 10.11 10.1465 9.99996 10.1465C9.88995 10.1465 9.78103 10.1247 9.67948 10.0824C9.57793 10.0401 9.48576 9.97812 9.40829 9.90001L4.50829 5.00001H15.4916ZM16.6666 14.1667C16.6666 14.3877 16.5788 14.5997 16.4225 14.7559C16.2663 14.9122 16.0543 15 15.8333 15H4.16663C3.94561 15 3.73365 14.9122 3.57737 14.7559C3.42109 14.5997 3.33329 14.3877 3.33329 14.1667V6.17501L8.23329 11.075C8.70204 11.5432 9.33746 11.8061 9.99996 11.8061C10.6625 11.8061 11.2979 11.5432 11.7666 11.075L16.6666 6.17501V14.1667Z" fill="#F0FDF4"/>
</svg>
