<svg width="285" height="181" viewBox="0 0 285 181" fill="none" xmlns="http://www.w3.org/2000/svg">
<path fill-rule="evenodd" clip-rule="evenodd" d="M142.5 0C104.577 0 80.6734 20.127 71.25 60.1386C85.5 40.0115 102.048 32.4942 121.125 37.5866C131.927 40.4966 139.742 48.7414 148.246 57.9561C162.266 72.9908 178.355 90.2079 213.75 90.2079C251.673 90.2079 275.577 70.0809 285 30.0693C270.75 50.1963 254.202 57.7137 235.125 52.6213C224.323 49.7114 216.508 41.4665 208.004 32.2517C193.984 17.2171 177.895 0 142.5 0ZM71.25 89.9654C33.3266 89.9654 9.42339 110.092 0 150.104C14.25 129.977 30.7984 122.46 49.875 127.552C60.6774 130.462 68.4919 138.707 76.996 147.922C91.0161 162.956 107.105 180.173 142.5 180.173C180.423 180.173 204.327 160.046 213.75 120.035C199.5 140.162 182.952 147.679 163.875 142.587C153.073 139.677 145.258 131.432 136.754 122.217C122.734 107.425 106.645 89.9654 71.25 89.9654Z" fill="#06B6D4"/>
</svg>
